HIERARCHY
ROOT ui
{
	 OFFSET 0 0 0
	 CHANNELS 3 XPosition YPosition Z Position
	 EndSite
	 {
	 OFFSET 0 -1 0
	 }
}
ROOT li
{
	 OFFSET 0 0 0
	 CHANNELS 3 XPosition YPosition Z Position
	 EndSite
	 {
	 OFFSET 0 -1 0
	 }
}
ROOT ul
{
	 OFFSET 0 0 0
	 CHANNELS 3 XPosition YPosition Z Position
	 EndSite
	 {
	 OFFSET 0 -1 0
	 }
}
ROOT ll
{
	 OFFSET 0 0 0
	 CHANNELS 3 XPosition YPosition Z Position
	 EndSite
	 {
	 OFFSET 0 -1 0
	 }
}
ROOT tt
{
	 OFFSET 0 0 0
	 CHANNELS 3 XPosition YPosition Z Position
	 EndSite
	 {
	 OFFSET 0 -1 0
	 }
}
ROOT tb
{
	 OFFSET 0 0 0
	 CHANNELS 3 XPosition YPosition Z Position
	 EndSite
	 {
	 OFFSET 0 -1 0
	 }
}
ROOT td
{
	 OFFSET 0 0 0
	 CHANNELS 3 XPosition YPosition Z Position
	 EndSite
	 {
	 OFFSET 0 -1 0
	 }
}
ROOT v
{
	 OFFSET 0 0 0
	 CHANNELS 3 XPosition YPosition Z Position
	 EndSite
	 {
	 OFFSET 0 -1 0
	 }
}
ROOT bn
{
	 OFFSET 0 0 0
	 CHANNELS 3 XPosition YPosition Z Position
	 EndSite
	 {
	 OFFSET 0 -1 0
	 }
}
MOTION
Frames: 30
Frame Time: 0.002
0.008281992912292481	0.0022566449642181397	0		0.46257058715820315	-2.354664794921875	0		-0.8900140380859375	0.38062451171875	0		-0.5263364868164062	-2.7372138671875	0		1.614037841796875	-0.6610630493164062	0		3.207161865234375	-0.265138916015625	0		4.477080078125	-0.12115554809570313	0		5.94635986328125	0.4463453369140625	0		-0.02465011215209961	5.95014599609375	0		
-0.003575038909912109	-1.0253799706697464E-4	0		0.4296902160644531	-2.35975634765625	0		-0.9367315673828125	0.3897011413574219	0		-0.539342529296875	-2.7525625	0		1.6020330810546874	-0.6754125366210938	0		3.194293701171875	-0.268468017578125	0		4.484171875	-0.12772982025146484	0		5.94242431640625	0.43791796875	0		-0.15780738830566407	5.92731494140625	0		
-0.003422250986099243	-6.04328989982605E-4	0		0.4527792053222656	-2.367542724609375	0		-0.8998003540039062	0.3717239074707031	0		-0.5503095092773438	-2.764930419921875	0		1.608814697265625	-0.7059822998046875	0		3.192222900390625	-0.28690753173828126	0		4.48123828125	-0.1351432647705078	0		5.942572265625	0.4374823913574219	0		-0.1587079315185547	5.92782421875	0		
-0.0032838139533996583	-0.0010933619737625122	0		0.41176040649414064	-2.383506591796875	0		-0.9676126098632812	0.37607501220703127	0		-0.5384640502929687	-2.792577880859375	0		1.6088016357421875	-0.7194424438476562	0		3.20134033203125	-0.2894544677734375	0		4.4923779296875	-0.1356932373046875	0		5.94658935546875	0.4280465087890625	0		-0.1614703369140625	5.94336865234375	0		
8.783680200576782E-4	0.0013836959600448608	0		0.44193975830078125	-2.384345947265625	0		-0.9264497680664062	0.37906411743164065	0		-0.5314238891601563	-2.805150146484375	0		1.6196160888671876	-0.7460125122070312	0		3.2100693359375	-0.32196090698242186	0		4.50041748046875	-0.1431582489013672	0		5.9428046875	0.43576583862304685	0		0.0048762612342834475	5.9708046875	0		
0.004040534019470215	0.004893840789794922	0		0.44008782958984377	-2.387759033203125	0		-0.92634912109375	0.37858367919921876	0		-0.5393250732421875	-2.813517578125	0		1.6385743408203124	-0.7606517944335938	0		3.22815234375	-0.3255396728515625	0		4.5023583984375	-0.15749600219726562	0		5.9388037109375	0.42754708862304686	0		-0.1587584686279297	5.9263994140625	0		
0.001091528058052063	5.036619901657105E-4	0		0.4611634521484375	-2.3974326171875	0		-0.8943147583007812	0.3737215576171875	0		-0.515308837890625	-2.829264404296875	0		1.603493896484375	-0.777580322265625	0		3.227890625	-0.3558454284667969	0		4.498390625	-0.16370626831054688	0		5.938888671875	0.42733978271484374	0		-0.0265757999420166	5.94931396484375	0		
-0.0028553299903869627	-0.0028476169109344484	0		0.4323583068847656	-2.397453125	0		-0.94527392578125	0.37091732788085935	0		-0.4902616271972656	-2.842998046875	0		1.6402159423828124	-0.8103714599609375	0		3.211897705078125	-0.3639090576171875	0		4.50232568359375	-0.1769643096923828	0		5.9389609375	0.42719207763671874	0		-0.1950753631591797	5.92300537109375	0		
-0.0027751710414886475	-0.003219589948654175	0		0.4732623291015625	-2.4213115234375	0		-0.9352244262695313	0.3693771667480469	0		-0.5581918334960938	-2.85454833984375	0		1.6142491455078125	-0.81734326171875	0		3.216535400390625	-0.40118936157226565	0		4.507314453125	-0.18518629455566407	0		5.9439208984375	0.4190374755859375	0		-0.16302760314941406	5.94222607421875	0		
0.00931931209564209	-0.0017073060274124146	0		0.4574051513671875	-2.425428955078125	0		-0.9630712890625	0.37733685302734377	0		-0.47031961059570315	-2.883000732421875	0		1.6282603759765626	-0.8257744140625	0		3.25954833984375	-0.4078993225097656	0		4.51349267578125	-0.17737591552734375	0		5.9480693359375	0.42694406127929685	0		-0.16226519775390624	5.94086669921875	0		
0.008479336738586425	0.006002060890197754	0		0.48456463623046875	-2.42804052734375	0		-0.889034912109375	0.3760739440917969	0		-0.5210322265625	-2.87670068359375	0		1.653771728515625	-0.874309814453125	0		3.216240234375	-0.43950299072265625	0		4.52124267578125	-0.20354310607910156	0		5.939109375	0.427057861328125	0		-0.16166929626464843	5.9275439453125	0		
-0.004407145977020264	0.010898445129394531	0		0.47662078857421875	-2.438179443359375	0		-0.8991001586914062	0.3678877868652344	0		-0.452154541015625	-2.903834228515625	0		1.6786341552734374	-0.89379150390625	0		3.248054931640625	-0.4609888916015625	0		4.5351201171875	-0.2187409362792969	0		5.94404052734375	0.4190436706542969	0		-0.16192652893066406	5.9272724609375	0		
-0.002550868034362793	-0.004345712184906006	0		0.4796042175292969	-2.45341064453125	0		-0.940125	0.3641209716796875	0		-0.4950458984375	-2.91055322265625	0		1.6843052978515625	-0.9279956665039063	0		3.251813720703125	-0.4860877685546875	0		4.54799951171875	-0.23288356018066406	0		5.93896142578125	0.41119338989257814	0		-0.16219442749023438	5.92704345703125	0		
-0.008377702713012695	0.007549118041992187	0		0.47975625610351563	-2.453563232421875	0		-0.940116943359375	0.3638958740234375	0		-0.4571041259765625	-2.9302158203125	0		1.6791368408203124	-0.9480244140625	0		3.26576708984375	-0.4942681884765625	0		4.5518798828125	-0.24587588500976562	0		5.93114990234375	0.4264158630371094	0		-0.16527592468261718	5.9428935546875	0		
-0.011413494110107421	0.0034521999359130857	0		0.4887933959960937	-2.46178076171875	0		-0.9571331176757812	0.362921875	0		-0.5200501708984375	-2.938608642578125	0		1.682075439453125	-0.9581096801757812	0		3.26348974609375	-0.5202130126953125	0		4.57489111328125	-0.2470611572265625	0		5.9440556640625	0.4194205017089844	0		-0.16555828857421875	5.942751953125	0		
0.008608779907226562	0.005120787143707275	0		0.4889108276367187	-2.46184716796875	0		-0.9161054077148437	0.3662920227050781	0		-0.457047119140625	-2.950481689453125	0		1.678916259765625	-0.9750816040039062	0		3.303222412109375	-0.5446270751953125	0		4.5787578125	-0.2589795837402344	0		5.94013232421875	0.4276624755859375	0		-0.13277252197265624	5.94825634765625	0		
-0.011424976348876953	0.0033135690689086914	0		0.47402493286132813	-2.46069287109375	0		-0.930276123046875	0.35437142944335936	0		-0.46604324340820313	-2.96044140625	0		1.6706741943359376	-0.9979553833007813	0		3.29294873046875	-0.5684028930664062	0		4.58160205078125	-0.2718542785644531	0		5.94400537109375	0.41983734130859374	0		-0.16331607055664063	5.926564453125	0		
0.0014954140186309813	-0.0018508390188217163	0		0.5328919677734375	-2.4793857421875	0		-0.8933126220703125	0.3538802185058594	0		-0.47405435180664063	-2.970373779296875	0		1.6595313720703124	-1.0117600708007812	0		3.28769140625	-0.5902093505859375	0		4.585439453125	-0.2847138977050781	0		5.9269580078125	0.4192864074707031	0		-0.16358836364746093	5.92654833984375	0		
-0.0025628550052642822	-0.004775590896606445	0		0.4889347839355469	-2.4818125	0		-0.96734423828125	0.3547544555664062	0		-0.458222900390625	-2.992554443359375	0		1.6573460693359374	-1.028641845703125	0		3.3092373046875	-0.6283113403320313	0		4.6102470703125	-0.2998018188476563	0		5.93082275390625	0.4115016174316406	0		-0.16567918395996092	5.94059228515625	0		
0.004497213840484619	0.00220092511177063	0		0.5269038696289062	-2.490185791015625	0		-0.9614278564453125	0.3507087707519531	0		-0.4591612243652344	-2.994498779296875	0		1.6543250732421875	-1.03148583984375	0		3.33922314453125	-0.6294879760742188	0		4.62916259765625	-0.30580026245117187	0		5.9309755859375	0.42777520751953124	0		-0.16492874145507813	5.939634765625	0		
0.008513702392578124	0.005244116783142089	0		0.4999913330078125	-2.487758056640625	0		-0.9253656616210938	0.35834097290039063	0		-0.46313018798828126	-2.998375244140625	0		1.66520849609375	-1.04247119140625	0		3.327858154296875	-0.6601566162109375	0		4.63095166015625	-0.32258230590820314	0		5.9307529296875	0.4120589599609375	0		-0.19737454223632814	5.92010107421875	0		
0.0014198570251464844	-0.0015541820526123048	0		0.5479053955078125	-2.500192626953125	0		-0.9304342041015625	0.35449224853515626	0		-0.46026943969726564	-3.016304443359375	0		1.6371103515625	-1.051973876953125	0		3.3146416015625	-0.6787887573242187	0		4.62380810546875	-0.3342488403320312	0		5.93072998046875	0.41234573364257815	0		-0.16349748229980468	5.92481103515625	0		
0.0014179160594940186	-0.001411777973175049	0		0.518966796875	-2.4996943359375	0		-0.8984943237304688	0.35023434448242186	0		-0.44319857788085937	-3.0163740234375	0		1.6710374755859374	-1.0601920166015626	0		3.307338134765625	-0.7054805297851563	0		4.63866015625	-0.34716912841796876	0		5.9268125	0.4206803283691406	0		-0.1977015380859375	5.92035107421875	0		
-0.0026083939075469973	-0.0042012171745300295	0		0.5528721923828125	-2.512920166015625	0		-0.9344903564453125	0.3508029479980469	0		-0.458337890625	-3.0340419921875	0		1.6320946044921876	-1.0575345458984375	0		3.315361083984375	-0.705342529296875	0		4.64560498046875	-0.3529910888671875	0		5.93562353515625	0.40486236572265627	0		-0.13152647399902342	5.94473046875	0		
0.004494019985198975	0.0028969240188598633	0		0.5010226745605468	-2.5051181640625	0		-0.9304292602539063	0.3549202575683594	0		-0.4243019104003906	-3.037268798828125	0		1.6521204833984375	-1.0585601806640625	0		3.3229580078125	-0.7421949462890625	0		4.6604775390625	-0.36590423583984377	0		5.9358251953125	0.42114630126953123	0		-0.16665481567382812	5.9413212890625	0		
-0.004378230094909668	0.011198188781738281	0		0.5481593017578125	-2.499467529296875	0		-0.9344479370117188	0.3511500854492188	0		-0.4711158447265625	-3.02752734375	0		1.635217041015625	-1.0541407470703126	0		3.318861083984375	-0.753903076171875	0		4.66030419921875	-0.3836396789550781	0		5.9268525390625	0.4215338134765625	0		-0.16290750122070313	5.92446923828125	0		
0.004573855876922607	0.003300434112548828	0		0.5530820922851563	-2.5123115234375	0		-0.8984077758789063	0.350924072265625	0		-0.3972738647460938	-3.048192626953125	0		1.646298828125	-1.052043701171875	0		3.3315166015625	-0.7878074951171875	0		4.65930859375	-0.3873662109375	0		5.9357060546875	0.4057054138183594	0		-0.1619412841796875	5.9236630859375	0		
-0.0024466829299926757	-0.003403067111968994	0		0.5442601318359375	-2.50398779296875	0		-0.9393938598632813	0.347611083984375	0		-0.47905081176757813	-3.036021240234375	0		1.6294173583984375	-1.047615966796875	0		3.2994697265625	-0.7971878051757812	0		4.66812646484375	-0.40821478271484374	0		5.935763671875	0.40597235107421875	0		-0.16193315124511717	5.92387548828125	0		
-0.002370408058166504	-0.0031884400844573975	0		0.5512348022460938	-2.51385107421875	0		-0.8974634399414062	0.335328125	0		-0.43611032104492187	-3.04931298828125	0		1.6376287841796875	-1.0364853515625	0		3.3151982421875	-0.8271373291015625	0		4.66106494140625	-0.4198871459960937	0		5.93191943359375	0.413271728515625	0		-0.16471907043457032	5.939123046875	0		
0.005709560871124267	-0.004072222232818603	0		0.5284209594726562	-2.50636962890625	0		-0.9612861328125	0.3432839050292969	0		-0.4659332580566406	-3.042753662109375	0		1.6488768310546875	-1.0233985595703126	0		3.339362548828125	-0.821195556640625	0		4.672158203125	-0.4197870788574219	0		5.9490087890625	0.41330667114257813	0		-0.16267471313476561	5.93730908203125	0		
